<?xml version="1.0" standalone="no"?><!DOCTYPE svg PUBLIC "-//W3C//DTD SVG 1.1//EN" "http://www.w3.org/Graphics/SVG/1.1/DTD/svg11.dtd"><svg t="1541496863184" class="icon" style="" viewBox="0 0 1024 1024" version="1.1" xmlns="http://www.w3.org/2000/svg" p-id="8265" xmlns:xlink="http://www.w3.org/1999/xlink" width="200" height="200"><defs><style type="text/css"></style></defs><path d="M817.288533 991.709867H226.474667A76.868267 76.868267 0 0 1 149.6064 914.773333V159.778133a76.868267 76.868267 0 0 1 76.868267-76.868266H272.042667a57.6512 57.6512 0 0 1 115.3024 0h269.073066a57.6512 57.6512 0 0 1 115.3024 0h45.533867A76.868267 76.868267 0 0 1 894.293333 159.778133V914.773333a76.868267 76.868267 0 0 1-76.868266 76.868267zM348.910933 82.909867a19.217067 19.217067 0 1 0-38.434133 0v38.434133a19.217067 19.217067 0 1 0 38.434133 0z m384.375467 0a19.217067 19.217067 0 0 0-38.434133 0v38.434133a19.217067 19.217067 0 0 0 38.434133 0z m122.436267 76.868266a38.434133 38.434133 0 0 0-38.434134-38.434133h-45.568a57.6512 57.6512 0 0 1-115.3024 0h-269.073066a57.6512 57.6512 0 0 1-115.3024 0H226.474667a38.434133 38.434133 0 0 0-38.434134 38.434133V256H855.722667z m0 134.519467H188.040533V914.773333a38.434133 38.434133 0 0 0 38.434134 38.434134h590.813866A38.434133 38.434133 0 0 0 855.722667 914.773333z m-141.653334 486.536533a57.6512 57.6512 0 1 1 57.6512-57.6512 57.6512 57.6512 0 0 1-57.6512 57.6512z m0-86.3232a28.637867 28.637867 0 1 0 28.637867 28.637867 28.672 28.672 0 0 0-28.637867-28.637867z m0-125.098666a57.6512 57.6512 0 1 1 57.6512-57.6512 57.6512 57.6512 0 0 1-57.6512 57.6512z m0-86.3232a28.637867 28.637867 0 1 0 28.672 28.637866 28.637867 28.637867 0 0 0-28.672-28.637866z m-192.170666 297.710933a57.6512 57.6512 0 1 1 57.6512-57.6512 57.6512 57.6512 0 0 1-57.6512 57.6512z m0-86.289067a28.637867 28.637867 0 1 0 28.637866 28.637867 28.637867 28.637867 0 0 0-28.637866-28.637867z m0-125.098666a57.6512 57.6512 0 1 1 57.6512-57.6512 57.6512 57.6512 0 0 1-57.6512 57.6512z m0-86.3232a28.637867 28.637867 0 1 0 28.672 28.637866 28.672 28.672 0 0 0-28.672-28.637866z m-192.2048 297.745066a57.6512 57.6512 0 1 1 57.6512-57.6512 57.6512 57.6512 0 0 1-57.6512 57.6512z m0-86.3232a28.637867 28.637867 0 1 0 28.637866 28.637867 28.672 28.672 0 0 0-28.637866-28.637867z m0-125.098666a57.6512 57.6512 0 1 1 57.6512-57.6512 57.6512 57.6512 0 0 1-57.6512 57.6512z m0-86.3232a28.637867 28.637867 0 1 0 28.637866 28.637866 28.637867 28.637867 0 0 0-28.637866-28.637866z m0 9.4208" p-id="8266" fill="#46adf4"></path></svg>