<?xml version="1.0" standalone="no"?><!DOCTYPE svg PUBLIC "-//W3C//DTD SVG 1.1//EN" "http://www.w3.org/Graphics/SVG/1.1/DTD/svg11.dtd"><svg t="1541552110112" class="icon" style="" viewBox="0 0 1024 1024" version="1.1" xmlns="http://www.w3.org/2000/svg" p-id="2756" xmlns:xlink="http://www.w3.org/1999/xlink" width="200" height="200"><defs><style type="text/css"></style></defs><path d="M797.286906 665.369461l29.998623-8.299619 1.09995-0.299986c18.099169-5.799734 33.298472-17.499197 42.798036-34.398421 9.399569-15.799275 12.799413-35.29838 8.299619-53.897526l-13.899362-60.297232 39.398192-40.598137 1.699922-1.09995c13.099399-14.999312 20.299068-32.198522 20.299068-51.397641 0-19.199119-7.19967-37.498279-20.299068-51.097655l-40.29815-43.597999-1.399936-1.699922 14.399339-57.497361c4.399798-18.29916 1.09995-37.798265-8.299619-53.59754-9.399569-16.899224-24.698866-28.898674-42.798036-34.398421l-58.897297-18.29916-16.099261-56.597402c-5.499748-17.799183-17.799183-33.898444-34.19843-43.098022-16.399247-9.199578-35.29838-12.19944-54.097517-7.499656l-59.997246 13.29939L562.997659 19.999082c-13.899362-12.799413-32.198522-19.999082-51.097655-19.999082-19.199119 0-37.198293 7.19967-51.097655 19.999082l-43.298013 40.598137-1.699922 1.399936-57.197375-14.199348c-17.499197-4.499793-35.498371-1.699922-51.397641 6.09972l-2.499885 1.399936c-16.899224 9.199578-28.898674 25.298839-34.398421 43.098022l-17.799183 57.997338-56.097425 16.899224-1.09995 0C176.91538 178.791794 162.016064 191.091229 152.5165 207.690467c-9.499564 16.099261-12.799413 35.29838-8.299619 53.59754l13.29939 59.097288 0.599972 1.09995-39.398192 40.798127-1.699922 1.09995c-12.799413 14.199348-19.999082 32.498508-19.999082 51.697627 0 19.099123 7.19967 36.398329 19.999082 50.797668l40.498141 43.597999 1.09995 1.399936-14.399339 57.497361c-3.899821 17.499197-1.09995 35.498371 6.699692 51.397641l1.699922 2.499885c9.399569 16.899224 24.39888 28.598687 42.69804 34.398421l30.598596 9.699555L105.318666 859.760538c-6.699692 10.799504-3.599835 24.998853 7.499656 31.698545 5.799734 3.899821 13.099399 4.699784 19.199119 2.999862l142.993437-33.298472 33.598458 144.693359c2.799871 12.19944 15.599284 20.599055 28.298701 17.499197 6.09972-1.599927 11.099491-5.799734 14.399339-10.299527L472.401817 818.662425c11.699463 7.799642 25.49883 11.399477 39.398192 11.399477 13.899362 0 27.798724-3.599835 39.398192-11.399477l121.094442 194.391078c3.299849 4.399798 8.299619 8.599605 14.699325 10.299527 12.499426 3.099858 25.298839-5.299757 27.798724-17.499197l33.598458-144.693359 143.7934 33.298472c6.09972 1.699922 12.799413 0.799963 18.899133-2.999862 10.599513-6.699692 13.899362-20.799045 7.19967-31.698545L797.286906 665.369461zM512 583.573215c-91.795787 0-166.292367-74.396585-166.292367-166.292367S420.204213 251.088475 512 251.088475c91.795787 0 166.292367 74.396585 166.292367 166.292367S603.795787 583.573215 512 583.573215z" p-id="2757" fill="#ffe157"></path></svg>