<?xml version="1.0" standalone="no"?><!DOCTYPE svg PUBLIC "-//W3C//DTD SVG 1.1//EN" "http://www.w3.org/Graphics/SVG/1.1/DTD/svg11.dtd"><svg t="1541573854203" class="icon" style="" viewBox="0 0 1024 1024" version="1.1" xmlns="http://www.w3.org/2000/svg" p-id="3437" xmlns:xlink="http://www.w3.org/1999/xlink" width="200" height="200"><defs><style type="text/css"></style></defs><path d="M940.8 486.4l-32 0c-6.4 0-6.4 0-12.8 0-6.4-25.6-12.8-64-44.8-102.4-25.6-32-57.6-57.6-102.4-76.8 0-44.8 12.8-76.8 32-134.4 0-6.4 0-12.8-6.4-19.2-6.4-6.4-12.8-6.4-19.2-6.4C691.2 166.4 640 204.8 614.4 268.8 576 256 537.6 256 492.8 256 384 256 294.4 288 211.2 345.6c-32 25.6-64 64-76.8 102.4C134.4 454.4 128 460.8 128 467.2c-6.4 0-19.2-6.4-25.6-12.8C76.8 435.2 70.4 416 70.4 396.8c0-25.6 12.8-44.8 32-51.2C108.8 339.2 115.2 326.4 108.8 320 102.4 313.6 96 307.2 83.2 307.2 51.2 326.4 32 358.4 32 396.8c0 38.4 19.2 64 51.2 89.6 12.8 12.8 25.6 12.8 38.4 19.2-6.4 32-12.8 64-6.4 102.4C115.2 704 179.2 768 224 806.4c0 0 0 0 0 0 6.4 6.4 6.4 6.4 6.4 12.8-6.4 19.2-19.2 51.2-19.2 51.2 0 0 0 0 0 0-6.4 12.8-6.4 25.6 0 44.8 6.4 12.8 19.2 25.6 32 25.6L307.2 960c6.4 0 12.8 6.4 19.2 6.4 25.6 0 44.8-12.8 51.2-32 0 0 6.4-25.6 19.2-44.8 0-6.4 0-6.4 0-6.4 0 0 6.4 0 12.8 0C428.8 889.6 454.4 896 492.8 896c38.4 0 64 0 76.8-6.4 6.4 0 12.8 0 19.2 0 0 0 0 0 0 0 0 0 0 0 0 6.4 6.4 19.2 12.8 38.4 12.8 38.4 6.4 19.2 25.6 32 51.2 32 6.4 0 12.8 0 19.2-6.4l70.4-25.6c12.8-6.4 25.6-12.8 32-25.6 6.4-12.8 6.4-25.6 0-38.4L768 838.4c0 0 0 0 0 0 0 0 0 0 0 0 0 0 0 0 6.4-6.4 51.2-25.6 89.6-70.4 115.2-121.6 6.4-12.8 6.4-12.8 19.2-12.8l32 0c32 0 51.2-25.6 51.2-51.2L992 537.6C992 512 966.4 486.4 940.8 486.4zM953.6 640c0 6.4-6.4 12.8-12.8 12.8l-32 0c-32 0-44.8 25.6-51.2 32-19.2 44.8-57.6 83.2-96 102.4-12.8 6.4-19.2 19.2-25.6 25.6-6.4 12.8 0 25.6 0 25.6l12.8 25.6c0 6.4 0 6.4 0 12.8 0 6.4-6.4 6.4-12.8 6.4l-70.4 25.6c0 0-6.4 0-6.4 0-6.4 0-12.8-6.4-19.2-12.8 0 0 0 0 0 0 0 0-6.4-19.2-12.8-38.4-6.4-12.8-12.8-32-38.4-32-6.4 0-12.8 0-25.6 0-19.2 0-38.4 6.4-76.8 6.4-38.4 0-57.6-6.4-76.8-6.4-6.4 0-12.8-6.4-19.2-6.4-25.6 0-32 19.2-38.4 32-6.4 19.2-19.2 44.8-19.2 44.8 0 6.4-6.4 12.8-19.2 12.8 0 0-6.4 0-6.4 0L256 902.4c-6.4 0-6.4-6.4-12.8-6.4 0-6.4 0-6.4 0-12.8 0-6.4 12.8-32 19.2-51.2 12.8-32-12.8-51.2-19.2-51.2 0 0 0 0 0 0-38.4-32-96-89.6-102.4-172.8C140.8 505.6 172.8 422.4 236.8 377.6 307.2 320 396.8 294.4 492.8 294.4c38.4 0 83.2 6.4 121.6 12.8 6.4 0 19.2 0 19.2-12.8 19.2-44.8 51.2-76.8 102.4-96-12.8 44.8-25.6 76.8-19.2 121.6 0 6.4 6.4 12.8 12.8 19.2 102.4 38.4 128 121.6 128 153.6 0 12.8 12.8 32 44.8 32l32 0c6.4 0 12.8 6.4 12.8 12.8L947.2 640zM268.8 262.4C262.4 249.6 256 230.4 256 211.2c0-64 51.2-115.2 115.2-115.2s115.2 51.2 115.2 115.2l38.4 0c0-83.2-70.4-153.6-153.6-153.6C288 57.6 224 128 224 211.2c0 25.6 6.4 44.8 12.8 64L268.8 262.4zM755.2 486.4c-19.2 0-38.4 19.2-38.4 38.4 0 19.2 19.2 38.4 38.4 38.4 19.2 0 38.4-19.2 38.4-38.4C793.6 505.6 774.4 486.4 755.2 486.4z" p-id="3438" fill="#ff862d"></path></svg>